<?xml version="1.0" encoding="UTF-8" standalone="no"?>
<!-- Created for MapSVG plugin: http://mapsvg.com -->
<svg
   xmlns:mapsvg="http://mapsvg.com"
   xmlns:dc="http://purl.org/dc/elements/1.1/"
   xmlns:rdf="http://www.w3.org/1999/02/22-rdf-syntax-ns#"
   xmlns:svg="http://www.w3.org/2000/svg"
   xmlns="http://www.w3.org/2000/svg"
   mapsvg:geoViewBox="-10.476361 60.846142 1.765083 49.162600"
   width="628.09174"
   height="1051.4788">
  <path
     d="m 576.76174,845.38453 0.48,0.02 0.17,0.16 0.29,0.14 0.06,0.09 -0.28,0.16 -0.17,0 -0.17,0.11 -0.26,0.02 -0.26,-0.18 -0.48,-0.14 -0.11,-0.11 0.06,-0.23 0.37,0.02 0.3,-0.06 z m -2.42,-0.3 0.17,0.21 0,0.11 0.2,0.09 0,0.16 0.08,0.11 -0.08,0.37 -0.11,0.09 -0.46,-0.16 -0.34,0.07 -0.17,-0.16 0.34,-0.23 0.03,-0.28 0.11,-0.23 0.14,-0.16 0.09,0 z m 12.64,-6.44 0.68,0.41 0.57,0.02 0.23,0.07 0.26,0.18 0.23,0.04 -0.09,0.3 -0.23,0.25 -0.11,0 -0.03,0.09 -0.08,0 -0.06,0.21 -0.17,0.02 -0.14,0.14 -0.29,0.07 -0.11,0.14 -0.26,0.09 -0.23,0.16 -0.28,0.02 -0.31,0.16 -0.11,0 -0.54,0.44 -0.37,0 -0.2,0.12 -0.83,0.02 -0.71,-0.11 -0.23,0.02 -0.14,-0.11 -0.03,-0.44 0.06,-0.02 0,-0.14 0.17,-0.39 0.23,-0.25 0.11,-0.02 0.17,-0.16 0.17,-0.02 0.14,-0.09 0.06,-0.32 0.17,-0.14 0.08,-0.16 0.37,0.02 0.06,-0.18 0.23,-0.07 0.23,-0.21 0.71,-0.07 0.26,-0.09 0.36,0 z m -14.29,-98.82 0.54,0.07 0.2,0.12 2.05,0.4 0.23,0.14 0.09,0.17 -0.14,0.12 -0.06,0.17 0.34,0.12 -0.08,0.19 -0.06,0 0.03,0.09 0.14,0 0.06,-0.12 -0.03,-0.31 -0.14,-0.02 0.06,-0.24 0.4,-0.14 0.48,0.05 0.11,-0.07 0.03,-0.09 0.08,0.02 0.06,0.14 0.29,0 0.91,0.19 0.83,-0.02 0.17,0.21 -0.14,0.09 -0.2,-0.02 -0.03,0.21 0.09,0.05 0.14,-0.02 0.14,-0.21 0.09,0 0.03,-0.09 0.17,-0.12 0.54,-0.07 0.46,0.09 0.08,0.05 0.06,0.14 -0.03,0.21 -0.23,0 -0.03,0.09 -0.11,0.02 0,0.17 0.4,0.24 0.08,0.47 0.17,0.14 0.09,0 0,-0.09 -0.11,-0.47 0.31,-0.19 0.11,-0.31 0.2,-0.12 0.09,-0.17 0.03,-0.12 -0.06,-0.05 0.06,-0.24 0.31,-0.07 0,-0.17 0.17,0.02 0,0.14 0.29,0.05 0.03,0.12 0.11,0 0,0.09 -0.2,-0.05 -0.06,0.09 0.11,0.14 0,0.21 0.23,0 0.23,-0.24 0.11,0.02 0.09,0.17 0.31,-0.02 0.03,-0.05 0.14,0.07 0.23,0 0.06,-0.17 0.06,0 0.06,0.09 0,0.21 0.37,0.17 -0.2,0.19 0,0.14 0.09,0 0.08,-0.19 0.14,-0.02 0.03,-0.09 0.28,-0.21 0.31,0.14 -0.14,0.07 -0.06,0.21 0.26,0.05 0,0.07 0.2,0.05 0.29,-0.05 0.06,-0.12 0.31,0 0.65,0.33 0.09,0 0,-0.05 0.14,-0.07 0,-0.17 0.06,-0.07 0.14,0.12 0.17,0 0.06,-0.09 0.43,-0.09 0.26,0.05 0.08,0.07 0.34,0 0.11,0.07 -0.03,-0.17 0.11,0 0,0.09 0.06,0 0.03,-0.09 0.34,-0.05 0.31,0.17 0.14,0 0.26,-0.14 0.17,-0.02 0,-0.05 -0.23,-0.07 -0.06,-0.12 -0.29,-0.12 -0.4,-0.07 -0.2,0.12 -0.31,-0.02 0,-0.12 -0.2,0 -0.08,0.17 -0.26,0.09 0,-0.05 -0.26,-0.02 -0.09,-0.07 -0.03,-0.12 -0.11,0 0.03,-0.17 0.11,-0.02 0.11,-0.12 0.2,-0.05 0.06,-0.09 0.2,0.05 0.09,-0.12 0.11,0 0.14,0.12 0.63,0.12 0.03,0.07 0.91,0.28 0.17,0.12 0.23,0.02 0.06,0.07 0.4,0.17 0.2,0.02 0.2,0.12 0.23,0.02 0.06,0.07 0.43,0.09 0.14,0.09 0.08,-0.02 0.57,0.24 0.37,0.07 0.17,0.12 0.17,0 0.03,0.07 0.17,0 0.09,0.07 0.46,0.07 0.14,0.09 0.63,0.12 0.2,0.12 0.11,-0.02 0.63,0.17 0.26,-0.02 0.23,0.07 1.17,0.07 0.14,0.07 1.65,0.02 0.03,0.05 1.11,0.17 0.06,0.07 0.66,0.05 0.08,0.07 0.83,0.12 0.06,0.07 0.31,0.05 0.23,0.14 0.26,0 0.08,0.09 0.29,0.02 0.03,0.09 0.51,0.07 0.31,0.21 0.09,0 0.06,0.09 0.31,0.05 0.03,0.12 0.26,0.09 0.23,0.19 0.23,0 0.11,0.17 0.2,0.02 0.4,0.19 0.2,0.21 0.26,0.09 0.06,0.07 -0.03,0.09 0.09,0.09 0.11,0.02 0,0.07 0.2,0.09 0.23,0.24 0.26,0.05 0.65,0.5 0.4,0.19 0.06,0.09 0.14,-0.02 0.03,0.14 0.23,0.05 0,0.07 0.23,0.09 0.14,0.14 0.11,0 0.23,0.26 0.26,0.12 0.23,0.23 0.2,0.07 0.4,0.4 0.29,0.19 0.14,0.24 0.23,0.19 0.03,0.12 0.43,0.35 0.06,0.14 0.74,0.61 0,0.07 0.11,0.05 0.09,0.21 0.14,0 0.43,0.49 0.06,-0.02 0.34,0.33 0.08,0 0.09,0.14 0.26,0.12 0.6,0.52 0.46,0.28 0.2,0.26 0.37,0.31 0.06,0.12 0.26,0.14 0,0.09 0.43,0.42 0.26,0.07 0,0.09 0.2,0.17 0.23,0.12 0.34,0.33 0.23,0.09 0.03,0.12 0.14,0.05 0.06,0.12 0.11,0.02 0.03,0.09 0.23,0.16 0.08,0.14 0.34,0.23 0.14,0.24 0.17,0.14 0.08,0 0.48,0.45 0.28,0.38 0.17,0.05 0.17,0.17 0,0.07 0.31,0.19 0.03,0.09 0.06,0 0.03,0.23 0.2,0.12 0.06,0.14 0.11,0.02 0.14,0.23 0.26,0.12 0.34,0.47 0.34,0.3 0.74,1.1 0.54,0.59 0.74,1.2 0.37,1.13 -0.03,0.19 0.08,0.38 0.88,2.51 0.06,0.14 0.09,0.05 0,0.19 0.11,0.23 0,0.3 0.14,0.26 -0.03,0.21 0.11,0.12 -0.03,0.14 0.11,0.12 0,0.21 0.08,0.05 0.09,0.63 0.06,0.09 -0.03,0.14 0.11,0.05 0,0.12 0.11,0.16 0.06,0.49 0.06,0.07 -0.06,0.49 -0.08,0.02 0,0.42 -0.06,0.21 0.03,0.58 -0.14,0.44 0,0.28 -0.08,0.07 0.08,0.42 -0.08,0.37 -0.06,0.05 0.03,0.23 0.06,0.05 -0.09,0.26 0.06,0.35 0.06,0.05 -0.03,0.12 0.06,0.23 -0.03,0.07 -0.34,0.16 0.09,0.79 -0.03,0.44 0.23,1.45 0.28,0.65 0,0.19 0.09,0.28 0.08,0.09 0.14,0.61 0.08,0.07 0.2,1 0.09,0.05 0.06,0.35 0.11,0.16 0.08,0.89 0.11,0.19 0.03,0.28 -0.06,0.02 -0.03,0.28 -0.17,0.4 -0.17,0 0.03,-0.19 0.06,-0.02 0,-0.09 -0.06,0 -0.14,0.23 0.03,0.12 -0.23,0.07 0.03,0.05 -0.08,0.07 0,0.09 -0.11,0.07 -0.06,0.28 -0.11,0.16 0,0.12 0.06,0.02 -0.06,0 -0.11,0.35 -0.2,0.28 -0.23,0.86 -0.14,0.86 -0.03,1.05 0.17,0.26 0.03,0.3 -0.08,0.16 0.08,0.02 0,0.07 -0.06,0.35 -0.06,0.05 -0.09,0.44 -0.06,0.05 -0.03,0.37 -0.17,0.21 -0.14,0.44 -0.08,0.05 -0.09,0.35 -0.23,0.16 0,0.12 -0.08,0.09 0,0.19 -0.09,0.07 -0.11,0.26 -0.11,0.44 -0.2,0.26 -0.03,0.19 -0.17,0.23 -0.09,0.3 -0.08,0.02 0,0.09 -0.11,0.12 0.03,0.25 -0.08,0.09 -0.08,0.58 -0.09,0.14 0,0.35 -0.08,0.09 0,0.26 -0.09,0.07 -0.11,0.46 -0.11,0.12 0,0.12 -0.09,0.05 -0.08,0.21 -0.14,0.09 0,0.09 0.06,0.02 -0.03,0.19 -0.08,0 -0.28,0.21 -0.11,0.16 -0.31,0.23 -0.11,0.21 -0.14,0.07 -0.17,0.21 -0.03,0.14 -0.17,0.14 -0.03,0.14 -0.23,0.37 0,0.12 -0.46,1.09 -0.14,1.04 -0.03,1.79 -0.11,0.97 -0.08,0.25 -0.06,0.95 -0.06,0.14 0.03,0.49 -0.09,0.46 0,0.7 0.09,0.58 -0.03,0.16 -0.08,0.05 -0.06,0.14 -0.14,0.49 -0.4,0.74 0,0.21 -0.2,0.56 -0.09,0.65 -0.2,0.72 -0.03,0.37 -0.31,1.04 -0.26,1.83 -0.17,0.58 -0.08,0.58 -0.26,0.55 -0.68,0.49 -0.34,0.09 -1.99,0.99 -1.42,0.62 -0.97,0.72 -0.37,0.48 -0.23,0.55 -0.23,0.25 -0.17,0.09 0,0.09 -0.23,0.12 -0.31,0.39 -0.11,0.46 -0.31,0.76 0,0.23 -0.11,0.05 -0.14,0.35 -0.85,0.81 -1,0.62 0,-0.62 -0.11,-0.23 -0.08,-0.05 0,-0.09 -0.23,-0.23 -0.28,-0.12 -0.14,-0.14 -0.4,-0.14 -0.23,-0.21 -0.06,-0.07 0,-0.32 0.06,-0.02 0.03,-0.25 -0.14,-0.44 -0.11,-0.09 -0.09,-0.23 -0.26,-0.09 -0.06,-0.09 -0.28,-0.12 0,-0.05 -0.08,0 -0.11,-0.16 0.03,-0.14 0.4,-0.37 -0.06,-0.46 0.06,-0.18 -0.17,-0.09 -0.11,-0.16 -0.14,-0.05 -0.06,-0.12 0.03,-0.09 -0.09,-0.05 0.03,-0.21 0.11,-0.12 -0.03,-0.37 -0.06,-0.02 0.06,-0.25 -0.11,-0.07 -0.14,0 -0.2,-0.18 -0.2,-0.07 -0.11,-0.14 -0.03,-0.14 -0.23,-0.16 0,-0.3 -0.06,-0.09 -0.17,-0.07 -0.14,0.05 -0.22,-0.08 0,-0.09 0.17,-0.07 0.09,-0.12 -0.06,-0.46 0.34,-0.12 0,-0.07 0.08,-0.05 0,-0.21 0.17,0.02 0,-0.28 -0.26,0.09 -0.03,0.46 -0.06,0.05 -0.29,0 -0.08,0.16 0.06,0.28 -0.14,0.07 -0.11,0.35 0.06,0.19 0.26,0.05 -0.03,0.05 0.09,0.05 0.03,0.23 0.31,0.28 0,0.21 0.14,0.07 0.14,0.23 0.03,0.16 0.11,0.09 0,0.14 -0.11,0.14 0,0.37 0.08,0.23 0.31,0.32 0.37,0.21 0,0.3 -0.17,0.09 -0.2,0.28 0,0.37 0.23,0.32 0.46,0.23 0.23,0.25 0.08,0.21 -0.03,0.74 0.06,0.02 0,0.14 0.11,0.18 0.68,0.37 0.11,0 0.09,0.18 0.23,0.23 0,0.14 0.11,0.14 0,0.16 0.23,0 0,0.21 -0.06,0.09 0.03,0.21 -0.06,0.3 -0.48,0.48 0,0.09 -0.09,0.05 -0.14,0.23 0,0.09 -0.14,0.14 -0.03,0.12 -0.11,0.07 0.03,0.12 -0.37,0.07 -0.06,0.09 -0.48,0.14 -0.48,0.3 -0.03,0.14 -0.09,0.09 -0.06,-0.02 0,0.09 -0.08,0.07 -0.11,0.28 -0.26,0.39 -0.09,0.04 -0.14,0.32 -0.14,0.14 -0.03,0.16 -0.26,0.35 -0.06,-0.09 0,-0.28 0.14,-0.23 0.03,-0.44 -0.06,-0.07 0,-0.18 -0.06,-0.05 -0.14,0.05 0,-0.12 0.09,-0.11 -0.11,-0.18 -0.43,-0.28 -0.29,-0.28 -0.77,-0.48 0,-0.14 -0.2,-0.16 -0.08,-0.41 0,-0.46 0.08,-0.83 0.06,-0.02 -0.03,-0.28 -0.11,-0.05 -0.03,0.07 -0.17,0 -0.14,-0.07 0,-0.12 -0.06,-0.05 -0.26,0.05 -0.03,-0.09 -0.34,-0.02 -0.03,-0.12 -0.2,0.07 -0.26,-0.14 -0.29,-0.07 -0.03,-0.09 -0.29,-0.12 -0.46,-0.37 -0.48,0.02 -0.34,-0.07 -0.2,-0.37 -0.54,-0.23 -0.06,-0.09 -0.54,0.02 -0.28,-0.25 -0.06,-0.18 -0.48,-0.42 -0.11,-0.37 -0.4,0 -0.03,-0.12 -0.11,-0.05 -0.11,-0.28 -0.03,-0.28 -0.06,0 -0.09,0.3 0.06,0.28 0.11,0.07 0,0.12 0.26,0.16 -0.03,0.14 0.11,0.09 0.17,0.48 0.68,0.71 0.37,0.23 0.11,0 0.11,-0.09 0.37,0.09 0.23,0.21 0.03,0.16 0.28,0.3 0.03,0.14 0.37,-0.02 0.11,0.07 0.51,0 0.23,0.16 0.23,0.05 0.03,0.07 0.4,0.14 0.06,0.07 0.37,0.05 0.37,0.14 0.17,0 0.08,0.07 0.17,0.39 0,1.11 0.17,0.21 0.23,0.58 -0.08,0.25 -0.14,0.07 0,0.07 -0.37,0.07 -0.43,-0.32 -0.46,-0.16 -0.26,-0.02 -0.23,0.16 -0.31,0.09 -0.03,0.07 -0.31,0.07 -0.03,0.07 -0.23,0.02 -0.03,0.11 -0.11,0.07 -0.14,0 -0.11,-0.05 0,-0.09 -0.09,-0.05 -0.26,0.05 -0.14,-0.02 -0.06,-0.07 -0.23,0.02 -0.17,-0.07 -0.26,0.07 -0.28,-0.02 -0.14,-0.12 -0.2,-0.55 -0.14,-0.16 -0.8,-0.14 -0.06,0.16 -0.14,-0.05 -0.11,0.07 0.03,0.12 -0.51,0.07 -0.34,0.18 -0.11,0.14 -0.26,0.14 -0.06,0.25 -0.09,0.02 -0.46,-0.18 -0.34,0.02 -0.2,0.14 -0.31,0 -0.06,-0.05 -0.17,0.05 -0.37,-0.32 -0.37,-0.05 -0.28,0.28 -0.17,0.02 -0.09,-0.05 -0.06,0.05 0,0.11 -0.2,0.07 0,0.09 -0.14,0.23 -0.11,-0.11 0.03,-0.16 -0.09,-0.07 -0.17,0.07 -0.03,0.09 0.23,0.18 -0.28,-0.18 -0.09,0 0,0.09 0.23,0.14 0.08,0.14 0.83,-0.02 0.11,0.18 0.17,0 0.14,-0.12 0.17,0 0.17,0.14 0.43,0.07 0.03,0.07 0.63,0 0.23,0.21 0.17,0 0.17,-0.14 0.54,0.12 0.46,-0.21 0.11,-0.09 0.03,-0.12 1.03,-0.25 0.17,0.02 0.08,0.25 0.23,0.21 0.66,0.16 0.46,-0.02 0.57,-0.25 0.23,0.04 0.14,-0.11 0.14,0.02 0.17,0.18 0.23,0 0.11,-0.23 0.26,-0.05 0.09,0.07 0.2,-0.25 0.11,-0.05 0.63,0 0.26,0.07 0.11,0.14 0.06,-0.05 0.11,0.02 0.08,0.07 0,0.25 0.23,0.07 0.09,0.16 0.11,0.05 0.23,-0.07 -0.03,-0.18 -0.14,-0.12 0,-0.14 0.2,0.02 0.11,-0.05 0,-0.12 0.14,-0.09 0.11,-0.18 0.2,0.07 0.06,0.18 -0.06,0.12 -0.09,0.02 0.06,0.23 -0.06,0.39 0.06,0.07 -0.34,0.05 -0.48,0.44 -0.06,0.18 -0.17,0.02 0.03,0.16 -0.06,0.21 -0.11,0.07 -0.08,0.21 -0.23,0.21 -0.03,0.14 -0.08,0.07 0,0.14 -0.14,0.32 -0.06,0.44 -0.17,0.14 -0.08,0.21 0.03,0.07 -0.14,0.14 -0.11,0.39 0.03,0.18 -0.06,0.21 -0.23,0.23 -0.43,-0.02 -0.14,-0.16 0.03,-0.21 0.06,-0.02 -0.08,-0.07 -0.14,0.25 0.14,0.34 -0.14,0.02 -0.06,0.07 -0.2,0 0,0.16 -0.54,0.14 0.03,0.07 0.11,0.02 0.03,-0.04 0.26,0.02 0.23,-0.09 0,0.34 -0.11,0.16 0.06,0.05 0.14,-0.07 0.03,-0.34 0.06,-0.05 -0.03,-0.12 0.23,-0.12 0.66,0.12 0.28,-0.12 -0.03,-0.09 0.14,0 0.11,-0.07 0.23,0.02 0.06,0.05 0.03,0.28 0.17,0.12 -0.03,0.41 0.09,0.02 0.06,0.12 0.03,0.3 0.08,0.16 0,0.14 -0.28,0.09 0,0.05 0.11,0.02 0.28,-0.12 0.03,-0.16 -0.11,-0.51 -0.09,-0.12 -0.03,-0.46 -0.11,-0.16 -0.08,-0.32 0.06,0 0.06,0.16 0.17,0 -0.08,-0.09 0.06,-0.05 0.06,0.14 0.17,0.09 0.06,0.12 0.17,0.14 0.28,0.12 0.23,0.18 0,0.07 0.23,0.14 -0.06,0.78 -0.08,0.09 0,0.09 -0.29,0.28 -0.06,0.16 -0.14,0.14 0,0.14 -0.08,0 -0.09,0.09 -0.11,0.28 -0.23,0.23 -0.11,0.23 -0.23,0.14 -0.14,0.18 -0.06,0.18 -0.14,0.09 -0.2,0.34 -0.2,0.16 -0.29,0.51 -0.2,0.11 -0.11,0.25 -0.46,0.3 -0.08,0.18 -0.17,0.07 -0.23,0.23 -0.14,0.02 -0.31,0.3 -0.43,0.18 -0.06,0.09 -0.63,0.32 -0.46,0.21 -0.06,-0.02 -0.17,0.14 -0.03,0.12 -0.83,0.44 -0.03,0.12 0.11,0.14 -0.03,0.07 -0.14,-0.02 -0.2,-0.16 -0.26,0.28 -0.34,0.25 -0.08,-0.02 -0.26,0.21 -0.11,0 -0.03,0.07 -0.26,0 -0.11,0.09 -0.31,0.09 -0.14,0.14 -0.14,-0.05 -0.71,0.09 -0.66,0 -0.11,-0.05 -0.74,0.21 -1.17,0.05 -0.31,-0.12 0,-0.09 -0.17,-0.16 0,-0.18 -0.14,-0.02 -0.06,-0.07 0,-0.34 -0.09,-0.07 -0.06,-0.21 -0.03,-0.41 -0.14,-0.18 0.03,-0.16 0.11,-0.02 -0.03,0.14 0.06,0.05 0.11,0.44 0.08,-0.05 0,-0.07 0.08,0 0.09,0.12 0,-0.28 -0.2,-0.12 0,-0.21 -0.14,-0.16 -0.17,-0.16 -0.11,0 -0.31,-0.18 -0.03,-0.11 0.11,-0.18 0.43,0.25 0.28,0 0.14,-0.12 0.34,-0.07 0.06,-0.09 0.2,-0.05 0.29,-0.21 0,-0.07 0.46,-0.25 0.09,-0.27 -0.09,-0.02 -0.08,0.18 -0.23,0.16 -0.66,0.25 -0.17,0.14 -1,0.07 0,-0.12 -0.06,-0.05 -0.17,0.07 -0.37,-0.07 -0.2,-0.14 -0.11,-0.21 -0.48,-0.39 -0.17,-0.41 -0.14,-0.16 -0.11,-0.34 -0.11,-0.07 -0.06,-0.25 0.11,-0.51 0.34,-0.12 -0.26,-0.04 -0.11,-0.09 0,-0.09 -0.17,-0.18 0.03,-0.23 -0.17,-0.23 -0.23,-0.12 -0.14,0.02 -0.34,-0.18 0.2,0.25 0.17,0 0.31,0.23 0.06,0.76 -0.03,0.18 -0.14,0.11 -0.03,0.32 0.06,0.09 0,0.18 0.17,0.25 0.14,0.44 -0.4,-0.09 -0.4,-0.25 -0.09,-0.16 0.03,-0.25 -0.11,0.05 0.03,0.34 -0.14,0 -0.43,-0.18 -0.09,0 0,0.09 0.85,0.3 0.29,0.23 0.11,0.21 0.26,0.18 0.26,0.09 0.31,0.32 -0.54,-0.02 -0.2,-0.25 -0.4,-0.23 -0.37,0.05 -0.28,0.14 -0.63,0.07 -0.29,0.18 -0.68,0.02 -0.06,0.05 0.06,0.07 0.51,-0.02 0.09,0.02 0,0.07 -0.26,0.14 -0.06,0.14 -0.26,-0.05 -0.37,0.28 0,0.14 -0.14,0.23 -0.23,0.05 -0.51,0.39 -0.11,0.21 -0.06,0.28 -0.08,0.07 0,-0.23 0.17,-0.25 0.06,-0.23 0.2,-0.3 0.23,-0.21 0.03,-0.16 -0.08,0.02 0,0.09 -0.31,0.23 0,0.09 -0.14,0.18 0,0.14 -0.06,0 0,0.09 -0.08,0.07 -0.11,0.37 -0.06,0.44 0.03,0.37 -0.06,-0.02 -0.06,-0.23 -0.37,-0.23 -0.14,-0.21 -0.34,-0.12 -0.11,0.07 -0.17,0 -0.48,-0.21 -0.54,0.09 -0.17,0.16 0,0.07 0.31,-0.16 0.17,0.02 0.17,-0.07 0,0.05 0.2,0.09 0.77,0.23 0.11,0.16 0.23,0.16 0.26,0.44 0.11,0.07 -0.06,0.14 0.28,0.16 -0.34,0.11 -0.14,0.12 -0.14,0 -0.34,-0.12 -0.26,-0.18 -0.54,-0.07 -0.09,-0.11 0.03,-0.3 -0.11,0 0,0.14 -0.06,0 0.03,0.18 -0.26,-0.14 -0.14,0 0.31,0.25 -0.37,0.05 0,0.05 0.37,0.05 0.23,0.09 0,0.09 -0.2,0.18 0.11,0 0.14,-0.14 0.14,0 0.48,0.3 0.11,0 0.23,0.14 0.17,0 -0.2,0.21 -0.43,0.25 -0.17,0.28 -0.11,0.02 -0.03,0.09 -0.46,0.34 -0.17,-0.07 -0.11,0.02 0.14,0.12 -0.06,0.09 -0.2,0.12 -0.17,0.02 -0.03,0.14 -0.43,-0.05 -0.43,0.05 -0.6,-0.05 -0.14,0.05 -0.2,-0.05 -0.03,-0.09 -0.29,-0.16 -0.17,0.05 -0.06,-0.07 -0.17,0 0,-0.07 -0.08,-0.05 0,0.09 -0.11,0.14 0.31,0 0.06,0.09 0.11,0.02 -0.34,0 -0.23,0.09 -0.06,0.11 -0.54,-0.11 -0.06,-0.18 -0.14,-0.07 -0.08,0.02 0,0.09 0.11,0.09 -0.46,-0.02 -0.06,-0.12 -0.09,-0.02 -0.03,0.18 -0.14,0.11 -0.14,0.02 -0.09,0.12 -0.2,0.02 -0.2,-0.09 0.17,0.28 -0.03,0.07 -0.23,0.11 -0.46,-0.05 0.03,0.11 -0.06,0.05 -0.2,-0.05 -0.29,-0.23 -0.14,-0.21 -0.23,-0.11 -0.17,0 -0.17,0.05 0.06,0.18 -0.09,0.07 0.03,0.09 -0.17,0.21 -0.06,0.39 -0.06,0.05 -0.2,-0.02 -0.06,-0.25 -0.31,-0.09 0.03,-0.07 0.26,0.05 0.11,0.12 0.06,0.21 0.06,0 -0.03,-0.09 0.08,-0.14 -0.43,-0.32 0,-0.07 -0.14,-0.11 -0.14,-0.05 -0.06,0.11 0.14,0.05 -0.06,0.09 0.03,0.16 -0.09,0.02 0.06,0.09 -0.17,0 0,0.07 0.43,0.05 -0.06,0.05 0.03,0.09 -0.06,0.11 0.23,0.07 0.08,0.21 0.43,0.41 0.26,-0.09 0.51,0.28 0.34,0 0.46,0.16 0.17,-0.02 0.26,0.18 0.26,-0.09 0.4,0.16 0.29,-0.05 0,0.07 -0.26,0.05 -0.11,0.23 -0.17,0.11 -0.11,0 -0.2,0.21 -0.03,0.09 0.11,0.14 -0.03,0.25 -0.29,0.05 -0.06,0.23 -0.2,-0.02 0.03,-0.16 -0.06,0 -0.09,0.11 0,0.16 -0.17,0.09 0,0.09 0.09,0 0.28,-0.18 0.09,0 0.08,0.16 0.2,0 -0.03,-0.18 0.23,-0.05 0,-0.07 0.11,-0.02 0.08,-0.16 -0.08,-0.28 0.03,-0.16 0.37,-0.25 0.23,0.02 0.11,0.09 -0.03,0.64 0.14,0.14 0.11,0 0,-0.07 -0.11,0 -0.06,-0.09 0.06,-0.67 -0.17,-0.21 0.26,-0.14 0.17,-0.02 0.17,-0.14 0.23,0.05 0,-0.09 0.08,-0.05 0.2,0 0,-0.07 -0.14,-0.05 0.11,-0.09 -0.06,-0.18 0.06,-0.34 0.14,-0.07 0.43,0.02 -0.06,0.16 0.14,0.05 -0.03,-0.12 0.06,-0.05 0.6,-0.25 0.37,0.05 0.48,0.46 0.14,-0.07 0.51,-0.05 0.06,-0.07 0.23,0.02 0.17,-0.09 0.14,0 0.11,-0.18 0.31,-0.12 0.11,-0.11 0.06,0 0,0.11 0.17,-0.05 -0.03,-0.23 0.11,-0.05 0.08,-0.18 0.14,-0.05 0.06,-0.11 -0.03,-0.12 0.43,-0.46 -0.03,-0.25 0.37,-0.37 0.2,-0.05 0.11,-0.09 0.83,-0.11 0.2,-0.09 0.43,0.07 0.2,0.16 0,0.09 0.28,0.18 0.03,0.14 0.11,0.05 0.03,0.14 0.11,0.07 0.14,0.23 0,0.14 0.11,0.23 -0.08,0.32 0.08,0.37 -0.06,0.02 -0.29,0.78 0,0.57 -0.11,0.21 0.03,0.48 0.34,0.76 -0.03,0.14 0.08,0.25 -0.11,0.18 0,0.46 -0.17,0.25 0,0.37 -0.09,0.09 0.06,0.09 -0.06,0.25 0.03,0.14 -0.11,0.14 -0.03,0.39 -0.17,0.37 0.14,0.11 -0.06,0.09 0.03,0.21 -0.17,0.11 0.06,0.21 0,0.39 -0.06,0.04 -0.06,0.27 -0.26,0.21 0.51,0.82 0.43,-0.07 0.17,0.05 0.46,-0.05 -0.08,0.34 -0.11,0.09 0,0.11 -0.2,0.16 -0.09,0.25 -0.08,0.05 -0.06,0.16 -0.09,0.05 -0.2,0.32 -0.23,0.14 0,0.09 -0.26,0.37 -0.26,0.27 -0.26,0.16 0,0.07 -0.17,0.11 -0.06,0.14 -0.14,0.05 -0.23,0.27 -0.11,0.02 -0.03,0.09 -0.17,0.09 -0.03,0.11 -0.11,0 -0.23,0.18 -0.03,0.11 -0.11,0.02 -0.06,0.14 -0.11,-0.02 -0.31,0.3 -0.2,0.04 -0.11,0.09 -0.03,0.09 -0.4,0.27 -0.09,0.18 -0.26,0.21 -0.23,0.14 -0.23,0.02 -0.51,-0.3 -0.14,-0.02 0,0.09 0.4,0.23 0.03,0.27 -0.08,0.02 0,0.07 -0.2,0.18 -0.23,0.07 -0.46,0.37 -0.11,0 -0.23,0.27 -0.2,0 -0.2,0.11 -0.08,0.14 -0.48,0.34 -0.28,0.32 -0.26,0.18 -0.37,0.39 -0.03,0.11 -0.46,0.02 -0.17,-0.14 -0.14,-0.02 -0.31,-0.27 -0.08,0 -0.09,-0.11 -0.43,-0.05 -0.28,-0.11 -0.97,0 -0.34,-0.11 -0.09,-0.11 -0.43,0.07 -0.14,-0.09 -0.57,0 -0.08,-0.07 -0.29,-0.05 -0.11,-0.09 -0.66,-0.05 -0.63,-0.23 -0.74,0 -0.26,-0.14 -0.23,0 -0.06,0.05 0.06,0.07 0.14,0.02 0.03,0.16 -0.14,0.05 -0.2,0.3 -0.28,0.09 -0.26,0 -0.11,-0.07 -0.63,0.02 -0.34,-0.21 0,-0.05 -0.14,0 -0.14,-0.14 -0.2,-0.02 -0.09,-0.07 -0.68,-0.11 -0.34,0 -0.31,-0.09 0.31,0.21 0.4,-0.02 0.88,0.23 0.2,0.21 0,0.23 0.11,0.09 0.71,-0.05 0.2,0.09 0.09,0.11 0.08,0 0.03,0.09 0.09,0.04 0,0.09 -0.11,-0.05 0.03,0.09 0.23,0.02 0.08,0.07 0,0.09 -0.14,0.14 -0.23,-0.05 -0.2,0.3 -0.17,0.04 -0.2,0.18 -0.57,0.07 -0.8,0.21 -0.2,-0.3 -0.09,-0.02 -0.06,0.07 0.06,0.18 -0.03,0.09 -0.14,0.11 -0.26,0.02 -0.06,0.07 -0.23,0 -0.66,-0.14 -0.03,-0.05 -0.2,0 -0.29,-0.55 -0.11,-0.02 -0.06,0.32 -0.06,0.05 -0.03,0.32 0.26,0.05 0,0.11 -0.06,0 -0.23,-0.09 0.06,-0.73 0.14,-0.14 -0.4,-0.16 -0.51,0.21 -0.2,-0.21 -0.09,-0.37 -0.23,-0.41 -0.23,-0.07 0.06,0.09 -0.06,0.02 -0.14,-0.09 -0.17,0 0.31,0.11 0.14,0.14 0.08,0.25 0,0.21 -0.11,0.07 0.11,0.09 0.03,0.18 0.11,0.16 0.29,0.07 0.08,0.09 0.48,-0.02 0.08,0.05 0,0.16 -0.31,0.18 -0.17,0 -0.37,0.14 -0.11,-0.16 -0.09,0 -0.46,0.37 -0.4,-0.02 -0.06,-0.09 -0.2,0.07 -0.06,-0.09 -0.08,0 -0.03,0.07 -0.11,0.02 -0.83,0.02 -0.23,0.11 -0.2,0.02 -0.14,-0.16 -0.31,-0.09 -0.09,0.07 0.03,0.07 -0.17,-0.02 -0.09,0.09 0.03,0.09 -0.08,0.05 -0.06,0.14 -0.26,0.11 0.03,0.3 -0.26,0.34 0.03,0.3 -0.06,0.11 0.03,0.34 -0.06,0.02 0,0.48 -0.06,0.02 0.03,0.3 -0.06,0.07 -0.03,0.27 -0.06,0.04 0.03,0.23 -0.06,0.21 -0.23,0.27 -0.63,0.2 -0.06,0.09 -0.34,0.04 0.14,0.42 0,0 -1.4,0.13 -1.06,0.42 -1.27,-0.25 -1.5,-1.57 -2.39,0.73 -2.15,-1.37 0,0 -0.36,-0.37 0.11,-0.66 1.2,-1.07 0.29,-1.73 1.28,0.27 0.37,-0.84 2.88,-1.07 -1.03,-1.83 -0.4,-1.37 -1.22,-0.41 -0.71,-0.8 -1,-1.92 -0.16,-0.87 -0.85,-0.14 -2.39,0.8 -3.71,0.32 -0.85,1.05 -0.6,0.14 -2.72,-1.65 -0.48,-1.3 -1.1,-0.73 -0.66,-0.34 0.3,-1.33 -0.22,-0.92 -7.01,-0.98 -0.53,1.1 -0.77,0.78 -1.39,0.34 -0.87,0.66 -0.58,-1.19 -0.48,-0.3 -0.36,0.39 -0.46,1.92 -3.42,0.8 -2.72,1.65 -2.97,-0.07 -1.38,0.37 -0.57,-0.55 -0.58,0.11 -0.24,1.51 -0.37,0.56 0,0 -1.29,-1.38 -0.36,-1.42 0.09,-1.33 1.32,-2.2 0.06,-0.64 -0.5,-0.3 -1.57,0.34 -0.11,-1.53 -0.58,-1.24 0.13,-0.64 1.27,-0.99 -0.16,-0.55 -0.75,-0.34 -1.2,0.57 -1.24,-1.4 -2.18,0.02 -1.57,-0.8 -0.6,-0.89 0.01,-1.38 -0.26,-0.8 -0.94,-1.01 -0.67,-0.09 -1.04,-1.54 0.87,-1.7 0.6,-0.12 1.38,0.55 0.14,0.53 -0.24,0.62 1.15,1.47 2.05,0.14 1.76,0.69 1.41,-1.68 0.94,0.18 -0.03,-0.62 -0.85,-0.99 -0.53,-1.31 -2.15,-2.09 -1.15,0.3 -1.82,-1.66 -1.38,-0.53 0.91,-2.76 1.47,-2.14 -0.64,-2.17 1.01,-1.36 0.23,-1.98 -0.41,-0.72 -1.04,-0.16 0.94,-1.41 1.28,-0.58 -0.36,-0.74 0.19,-0.21 2.29,-1.87 -0.74,-1.78 -2.23,-2.37 0.53,-2.37 -1.7,-1.47 0,0 1.02,-1.97 -0.1,-1.85 -0.38,-1.14 0.13,-0.6 2.6,-0.58 0.67,0.21 0.97,1.3 0.9,0.19 0.47,-0.33 0.34,-0.9 0,-1.9 1.14,-1.65 2.27,-0.48 -0.14,-1.24 -1.24,-2.09 0.06,-1.42 3,-1.42 0.48,-1.12 1.72,-1.37 2.21,-2.96 0.21,-0.68 -0.64,-2.89 -3.03,-1.83 0.45,-2.15 -0.86,-1.08 0.07,-1.33 -2.41,0.34 -0.67,-0.51 0.4,-3.46 -0.44,-1.33 -0.82,-0.97 1.23,-0.57 1.59,0.56 1.72,-0.02 4.46,-2.25 2.72,1.36 3.2,-0.74 0.84,1.21 1.17,-0.21 1.17,0.49 1.85,-1.12 0.95,0.16 1.61,-0.7 2.63,0.91 1.65,-0.04 0.81,-0.73 0.47,-1.17 -0.23,-2.53 0.38,-0.42 1.91,-0.21 2.66,-1.45 1.18,0.07 1.4,0.23 3.93,-2.93 0.13,-0.52 -0.84,-1.13 1.33,-3.93 0,0 0.24,0 0.34,0.09 0.43,0 0.14,0.14 0.17,-0.07 0.43,0 0.23,0.05 0,0.05 0.28,0.02 0.11,0.07 0.03,0.09 -0.17,-0.07 -0.2,0 -0.2,0.14 0.14,0.07 0,0.07 0.31,0.26 0.23,0 0.17,0.31 0.17,0.14 0.26,0.12 0.14,0 0.14,-0.33 0.11,-0.19 0.06,0 0,-0.3 0.26,0.26 0.06,0 0.03,-0.09 0.14,0 -0.03,-0.16 0.23,-0.17 0.17,-0.33 0.26,-0.16 0.06,-0.12 0.26,-0.12 0.03,-0.14 0.08,0 0.09,-0.17 0.11,-0.05 0.03,-0.16 0.23,-0.09 0.06,-0.12 0.23,-0.14 0.17,-0.28 0.26,-0.09 0.77,-0.02 0.08,-0.09 0.17,-0.59 0.31,0.21 0.2,0 0,-0.16 0.2,-0.21 0.03,-0.49 0.14,-0.16 -0.08,-0.31 -0.11,-0.07 0,-0.23 -0.06,-0.12 0.09,-0.21 0.06,-0.52 0.26,-0.42 0,-0.38 0.2,-0.09 0.28,-0.4 0.2,-0.56 0.14,-0.19 0.06,-0.28 0.11,-0.17 0.08,-0.26 0,-0.4 0.17,-0.38 0.03,-0.57 0.17,-0.42 0,-0.31 0.34,-0.64 -0.03,-0.33 0.14,-0.42 0.4,-0.35 0.03,-0.31 0.31,-0.17 0.03,-0.12 0.2,-0.21 0.23,-0.14 0.31,-0.52 0.28,-0.17 0.29,-0.28 0.54,-0.12 -0.03,0.14 -0.43,0.05 0.29,0.14 0.11,0 0.11,-0.12 0.23,-0.07 0,-0.05 0.57,-0.02 0.03,0.07 0.48,0 0.23,0.09 0,0.21 0.09,0.02 0.03,-0.07 0.14,0 0.28,-0.24 0.26,-0.02 0.11,0.05 0.06,-0.17 0.43,0.07 0.2,0.12 0.26,0.05 0.4,0 0.14,-0.14 0.29,0.14 0.37,-0.02 0.11,-0.02 0,-0.05 0.29,-0.02 0.65,-0.19 0,-0.21 0.11,-0.05 0.14,0.19 0.51,-0.07 0.43,0.19 0.11,0.31 -0.14,0.07 -0.06,0.14 -0.14,0 -0.11,0.09 0,0.09 0.08,0 0.26,-0.14 0.06,-0.17 0.2,-0.05 0,-0.12 0.23,-0.02 0.31,-0.14 0.11,-0.28 0.43,-0.07 -0.48,-0.07 -0.2,0.14 -0.06,0.12 -0.31,0.14 -0.08,-0.07 0,-0.09 0.06,-0.02 0.06,-0.59 -0.2,0 -0.17,0.14 -0.17,0.02 -0.08,0.12 -0.43,0.09 -0.17,-0.19 0.06,-0.38 0.74,-0.07 1.13,0 z"
     title="East of England"
     id="GB-UKH" />
   </svg>
